<svg version="1.1" viewBox="0.0 0.0 960.0 540.0" fill="none" stroke="none" stroke-linecap="square" stroke-miterlimit="10" xmlns:xlink="http://www.w3.org/1999/xlink" xmlns="http://www.w3.org/2000/svg"><clipPath id="p.0"><path d="m0 0l960.0 0l0 540.0l-960.0 0l0 -540.0z" clip-rule="nonzero"/></clipPath><g clip-path="url(#p.0)"><path fill="#000000" fill-opacity="0.0" d="m0 0l960.0 0l0 540.0l-960.0 0z" fill-rule="evenodd"/><path fill="#000000" fill-opacity="0.0" d="m22.75853 496.35434c127.20322 0 197.25288 -114.3071 254.40642 -228.6142c57.153564 -114.30707 101.41098 -228.61417 202.82193 -228.61417" fill-rule="evenodd"/><path stroke="#000000" stroke-width="8.0" stroke-linejoin="round" stroke-linecap="butt" d="m22.75853 496.35434c127.20322 0 197.25288 -114.3071 254.40642 -228.6142c57.153564 -114.30707 101.41098 -228.61417 202.82193 -228.61417" fill-rule="evenodd"/><path fill="#000000" fill-opacity="0.0" d="m937.24146 496.35434c-114.30707 0 -171.46063 -114.3071 -228.61414 -228.6142c-57.153564 -114.30707 -114.30713 -228.61417 -228.6142 -228.61417" fill-rule="evenodd"/><path stroke="#000000" stroke-width="8.0" stroke-linejoin="round" stroke-linecap="butt" d="m937.24146 496.35434c-114.30707 0 -171.46063 -114.3071 -228.61414 -228.6142c-57.153564 -114.30707 -114.30713 -228.61417 -228.6142 -228.61417" fill-rule="evenodd"/><path fill="#000000" fill-opacity="0.0" d="m476.39587 376.95288l0 0c-14.475647 8.358368 -32.984253 3.3981628 -41.34012 -11.078949l-60.543915 -104.896576l0 0c-4.0126038 -6.9521637 -5.0994263 -15.214066 -3.0213623 -22.968185c2.078064 -7.75412 7.1507874 -14.36528 14.102264 -18.379105l104.83884 -60.534836c14.475647 -8.358368 32.984253 -3.3981476 41.340088 11.078964l60.543945 104.896576c8.355835 14.477112 3.3947754 32.988922 -11.080872 41.34729z" fill-rule="evenodd"/><path stroke="#000000" stroke-width="8.0" stroke-linejoin="round" stroke-linecap="butt" d="m476.39587 376.95288l0 0c-14.475647 8.358368 -32.984253 3.3981628 -41.34012 -11.078949l-60.543915 -104.896576l0 0c-4.0126038 -6.9521637 -5.0994263 -15.214066 -3.0213623 -22.968185c2.078064 -7.75412 7.1507874 -14.36528 14.102264 -18.379105l104.83884 -60.534836c14.475647 -8.358368 32.984253 -3.3981476 41.340088 11.078964l60.543945 104.896576c8.355835 14.477112 3.3947754 32.988922 -11.080872 41.34729z" fill-rule="evenodd"/><path fill="#cb3c33" d="m446.45554 277.34146l0 0c-12.637299 7.3058167 -28.797363 2.9767456 -36.094482 -9.669281l0 0c-3.504181 -6.0728455 -4.4541016 -13.290634 -2.640747 -20.065567c1.813324 -6.774933 6.241394 -12.552048 12.310059 -16.060425l0 0c12.637299 -7.3058014 28.797363 -2.976715 36.094482 9.669296l0 0c7.297119 12.646011 2.9680176 28.82016 -9.669312 36.125977z" fill-rule="evenodd"/><path fill="#389826" d="m547.8342 303.41592l0 0c-12.637329 7.3058167 -28.797363 2.976715 -36.094482 -9.669312l0 0c-3.5042114 -6.072815 -4.454132 -13.290619 -2.6407776 -20.065552c1.8133545 -6.774933 6.2414246 -12.552032 12.310028 -16.060425l0 0c12.637329 -7.3058167 28.797424 -2.976715 36.094543 9.669281l0 0c7.297058 12.646027 2.9680176 28.82019 -9.669312 36.126007z" fill-rule="evenodd"/><path fill="#4063d8" d="m483.09076 340.79562l0 0c-12.637299 7.3058167 -28.797363 2.976715 -36.094482 -9.669281l0 0c-3.5042114 -6.0728455 -4.4541016 -13.290649 -2.6407776 -20.065582c1.8133545 -6.774933 6.2414246 -12.552032 12.310059 -16.060425l0 0c12.637329 -7.3058167 28.797394 -2.976715 36.094513 9.669312l0 0c7.2970886 12.645996 2.9680176 28.82016 -9.669312 36.125977z" fill-rule="evenodd"/><path fill="#9558b2" d="m511.199 239.96176l0 0c-12.637329 7.3058167 -28.797363 2.9767303 -36.094482 -9.669296l0 0c-3.5042114 -6.07283 -4.454132 -13.290619 -2.6407776 -20.065567c1.8133545 -6.774933 6.241394 -12.552032 12.310059 -16.06041l0 0c12.637329 -7.3058167 28.797363 -2.9767303 36.094482 9.669296l0 0c7.297119 12.646011 2.9680176 28.82016 -9.669281 36.125977z" fill-rule="evenodd"/><path fill="#000000" fill-opacity="0.0" d="m372.83203 418.0525l221.16534 0l0 84.031494l-221.16534 0z" fill-rule="evenodd"/><path fill="#000000" d="m384.23828 478.2525l0 -34.34375l9.75 0l8.53125 17.4375l8.484375 -17.4375l9.703125 0l0 34.34375l-10.03125 0l0 -17.171875l-5.484375 11.3125l-5.390625 0l-5.546875 -11.3125l0 17.171875l-10.015625 0zm49.166504 0.53125q-2.40625 0 -4.46875 -0.84375q-2.046875 -0.859375 -3.28125 -2.671875q-1.21875 -1.8125 -1.21875 -4.59375q0 -4.0 2.671875 -6.203125q2.671875 -2.21875 8.046875 -2.21875l6.5625 0l0 -0.484375q0 -1.484375 -1.234375 -2.171875q-1.21875 -0.703125 -4.3125 -0.703125q-4.375 0 -8.640625 1.328125l0 -6.015625q1.921875 -0.75 4.796875 -1.25q2.890625 -0.515625 5.875 -0.515625q6.03125 0 9.546875 2.453125q3.515625 2.453125 3.515625 7.78125l0 15.578125l-8.75 0l-0.46875 -2.03125q-1.34375 1.171875 -3.453125 1.875q-2.09375 0.6875 -5.1875 0.6875zm3.40625 -5.859375q1.703125 0 2.90625 -0.578125q1.203125 -0.59375 2.0 -1.453125l0 -3.140625l-4.84375 0q-3.3125 0 -3.3125 2.609375q0 2.5625 3.25 2.5625zm27.571594 5.859375q-4.640625 0 -6.609375 -1.96875q-1.96875 -1.96875 -1.96875 -6.1875l0 -28.3125l10.015625 0l0 27.1875q0 1.171875 0.484375 1.578125q0.484375 0.40625 1.5 0.40625q0.6875 0 1.34375 -0.109375q0.671875 -0.109375 1.265625 -0.328125l0 6.671875q-1.390625 0.53125 -2.703125 0.796875q-1.296875 0.265625 -3.328125 0.265625zm15.678314 0q-4.640625 0 -6.609375 -1.96875q-1.96875 -1.96875 -1.96875 -6.1875l0 -28.3125l10.015625 0l0 27.1875q0 1.171875 0.484375 1.578125q0.484375 0.40625 1.5 0.40625q0.6875 0 1.34375 -0.109375q0.671875 -0.109375 1.265625 -0.328125l0 6.671875q-1.390625 0.53125 -2.703125 0.796875q-1.296875 0.265625 -3.328125 0.265625zm22.136627 0q-7.578125 0 -11.1875 -3.359375q-3.59375 -3.359375 -3.59375 -9.8125q0 -6.390625 3.625 -9.78125q3.625 -3.390625 11.15625 -3.390625q7.5625 0 11.21875 3.390625q3.65625 3.390625 3.65625 9.78125q0 6.453125 -3.625 9.8125q-3.625 3.359375 -11.25 3.359375zm0 -7.296875q2.453125 0 3.546875 -1.390625q1.09375 -1.390625 1.09375 -4.484375q0 -3.03125 -1.09375 -4.4375q-1.09375 -1.421875 -3.546875 -1.421875q-2.40625 0 -3.46875 1.421875q-1.0625 1.40625 -1.0625 4.4375q0 3.09375 1.0625 4.484375q1.0625 1.390625 3.46875 1.390625zm21.807434 6.765625l-6.671875 -25.28125l9.703125 0l3.0 12.53125l2.921875 -8.90625l0 -3.625l7.359375 0l3.53125 12.53125l2.875 -12.53125l9.703125 0l-6.671875 25.28125l-8.953125 0l-3.84375 -11.46875l-3.828125 11.46875l-9.125 0z" fill-rule="nonzero"/><path fill="#000000" d="m570.0265 478.78375q-3.25 0 -6.109375 -0.453125q-2.84375 -0.453125 -4.5 -1.140625l0 -7.203125q1.859375 0.859375 4.4375 1.34375q2.59375 0.46875 4.40625 0.46875q1.921875 0 2.90625 -0.109375q1.0 -0.109375 1.0 -0.90625q0 -0.90625 -1.765625 -1.375q-1.765625 -0.484375 -4.421875 -1.390625q-3.46875 -1.234375 -5.1875 -2.875q-1.703125 -1.65625 -1.703125 -4.8125q0 -3.78125 2.984375 -5.828125q3.0 -2.0625 9.390625 -2.0625q2.453125 0 5.0625 0.375q2.625 0.375 4.109375 0.859375l0 7.03125q-1.59375 -0.6875 -3.5 -1.0q-1.890625 -0.328125 -3.4375 -0.328125q-1.703125 0 -3.03125 0.15625q-1.328125 0.15625 -1.328125 0.90625q0 0.859375 1.515625 1.234375q1.515625 0.359375 4.078125 1.171875q2.875 0.84375 4.5 1.859375q1.625 1.015625 2.296875 2.453125q0.671875 1.4375 0.671875 3.578125q0 3.84375 -3.125 5.953125q-3.125 2.09375 -9.25 2.09375z" fill-rule="nonzero"/></g></svg>