<svg version="1.1" viewBox="0.0 0.0 500.0 209.0" fill="none" stroke="none" stroke-linecap="square" stroke-miterlimit="10" xmlns:xlink="http://www.w3.org/1999/xlink" xmlns="http://www.w3.org/2000/svg"><clipPath id="p.0"><path d="m0 0l500.0 0l0 209.0l-500.0 0l0 -209.0z" clip-rule="nonzero"/></clipPath><g clip-path="url(#p.0)"><path fill="#000000" fill-opacity="0.0" d="m0 0l500.0 0l0 209.0l-500.0 0z" fill-rule="evenodd"/><path fill="#000000" fill-opacity="0.0" d="m223.46788 99.92857l0 0c0 -8.967194 7.269348 -16.236542 16.236542 -16.236542l85.16472 0c4.306183 0 8.436005 1.7106323 11.480957 4.755577c3.0449524 3.0449371 4.7555847 7.1747665 4.7555847 11.480965l0 64.94423c0 8.967209 -7.269348 16.236557 -16.236542 16.236557l-85.16472 0c-8.967194 0 -16.236542 -7.269348 -16.236542 -16.236557z" fill-rule="evenodd"/><path fill="#000000" fill-opacity="0.0" d="m239.70442 181.10936c-8.967194 0 -16.236542 -7.269348 -16.236542 -16.236557l0 -64.94423l0 0c0 -8.967194 7.269348 -16.236542 16.236542 -16.236542m85.16472 0c4.306183 0 8.436005 1.7106323 11.480957 4.755577c3.0449524 3.0449371 4.7555847 7.1747665 4.7555847 11.480965l0 64.94423c0 8.967209 -7.269348 16.236557 -16.236542 16.236557" fill-rule="evenodd"/><path stroke="#000000" stroke-width="4.0" stroke-linejoin="round" stroke-linecap="butt" d="m239.70442 181.10936c-8.967194 0 -16.236542 -7.269348 -16.236542 -16.236557l0 -64.94423l0 0c0 -8.967194 7.269348 -16.236542 16.236542 -16.236542m85.16472 0c4.306183 0 8.436005 1.7106323 11.480957 4.755577c3.0449524 3.0449371 4.7555847 7.1747665 4.7555847 11.480965l0 64.94423c0 8.967209 -7.269348 16.236557 -16.236542 16.236557" fill-rule="evenodd"/><path fill="#4063d8" d="m195.72072 127.991356l5.228348 0l0 4.1574783l-5.228348 0z" fill-rule="evenodd"/><path fill="#4063d8" d="m196.89598 122.765045l8.346451 0l0 6.6456757l-8.346451 0z" fill-rule="evenodd"/><path fill="#4063d8" d="m197.06033 107.72448l11.748032 0l0 18.834648l-11.748032 0z" fill-rule="evenodd"/><path fill="#4063d8" d="m194.97113 102.04462l11.244095 0l0 8.472443l-11.244095 0z" fill-rule="evenodd"/><path fill="#000000" fill-opacity="0.0" d="m4.614427 199.02019c61.496063 0 92.244095 -47.259842 122.99213 -94.51968c30.748032 -47.259846 61.496063 -94.519684 122.99213 -94.519684" fill-rule="evenodd"/><path stroke="#000000" stroke-width="4.0" stroke-linejoin="round" stroke-linecap="butt" d="m4.614427 199.02019c61.496063 0 92.244095 -47.259842 122.99213 -94.51968c30.748032 -47.259846 61.496063 -94.519684 122.99213 -94.519684" fill-rule="evenodd"/><path fill="#000000" fill-opacity="0.0" d="m241.37607 152.3663l0 0c-5.9868317 -3.452942 -8.0392 -11.104355 -4.584076 -17.089935l25.03125 -43.363693l0 0c1.6591797 -2.8743744 4.392517 -4.9723206 7.5986633 -5.8323135c3.2061462 -0.859993 6.6224976 -0.41159058 9.497467 1.2465668l43.35913 25.00763c5.986847 3.4529343 8.039215 11.104355 4.5841064 17.089928l-25.03125 43.363693c-3.4551086 5.9855804 -11.109314 8.038681 -17.09616 4.585739z" fill-rule="evenodd"/><path stroke="#000000" stroke-width="4.0" stroke-linejoin="round" stroke-linecap="butt" d="m241.37607 152.3663l0 0c-5.9868317 -3.452942 -8.0392 -11.104355 -4.584076 -17.089935l25.03125 -43.363693l0 0c1.6591797 -2.8743744 4.392517 -4.9723206 7.5986633 -5.8323135c3.2061462 -0.859993 6.6224976 -0.41159058 9.497467 1.2465668l43.35913 25.00763c5.986847 3.4529343 8.039215 11.104355 4.5841064 17.089928l-25.03125 43.363693c-3.4551086 5.9855804 -11.109314 8.038681 -17.09616 4.585739z" fill-rule="evenodd"/><path fill="#cb3c33" d="m270.05643 114.13368l0 0c-4.1138916 -2.3743896 -5.5240173 -7.634163 -3.1496277 -11.748032l0 0c1.1402283 -1.9755478 3.0185242 -3.4172363 5.22171 -4.0078964c2.203186 -0.5906677 4.5507812 -0.28192902 6.5263367 0.8582916l0 0c4.113861 2.3743896 5.523987 7.634163 3.1495972 11.748032l0 0c-2.3743896 4.1138687 -7.6341553 5.5239944 -11.748016 3.1496048z" fill-rule="evenodd"/><path fill="#389826" d="m284.90753 168.23529l0 0c-4.113861 -2.3743896 -5.523987 -7.6341553 -3.1495972 -11.748032l0 0c1.1401978 -1.9755554 3.0185242 -3.4172363 5.22171 -4.007904c2.203186 -0.5906677 4.5507507 -0.2819214 6.526306 0.8582916l0 0c4.113861 2.3743896 5.523987 7.6341705 3.1495972 11.748032l0 0c-2.3743896 4.1138763 -7.6341553 5.524002 -11.748016 3.1496124z" fill-rule="evenodd"/><path fill="#9558b2" d="m277.18875 141.4402l0 0c-4.113861 -2.3743896 -5.523987 -7.6341705 -3.1495972 -11.748032l0 0c1.1402283 -1.9755554 3.0185242 -3.417244 5.22171 -4.007904c2.203186 -0.5906677 4.5507812 -0.28192902 6.5263367 0.8582916l0 0c4.113861 2.3743896 5.523987 7.6341553 3.1495972 11.748032l0 0c-2.3743896 4.113861 -7.6341553 5.524002 -11.748047 3.1496124z" fill-rule="evenodd"/><path fill="#000000" fill-opacity="0.0" d="m163.88403 99.20793l0 65.44882" fill-rule="evenodd"/><path stroke="#000000" stroke-width="4.0" stroke-linejoin="round" stroke-linecap="butt" d="m163.88403 99.20793l0 65.44882" fill-rule="evenodd"/><path fill="#000000" fill-opacity="0.0" d="m177.11417 99.20793l0 65.44882" fill-rule="evenodd"/><path stroke="#000000" stroke-width="4.0" stroke-linejoin="round" stroke-linecap="butt" d="m177.11417 99.20793l0 65.44882" fill-rule="evenodd"/><path fill="#000000" fill-opacity="0.0" d="m154.39433 100.21704l37.95276 0" fill-rule="evenodd"/><path stroke="#000000" stroke-width="4.0" stroke-linejoin="round" stroke-linecap="butt" d="m154.39433 100.21704l37.95276 0" fill-rule="evenodd"/><path fill="#000000" fill-opacity="0.0" d="m154.39433 164.37024l32.944885 0" fill-rule="evenodd"/><path stroke="#000000" stroke-width="4.0" stroke-linejoin="round" stroke-linecap="butt" d="m154.39433 164.37024l32.944885 0" fill-rule="evenodd"/><path fill="#000000" fill-opacity="0.0" d="m177.017 134.10318l12.629929 0" fill-rule="evenodd"/><path stroke="#000000" stroke-width="4.0" stroke-linejoin="round" stroke-linecap="butt" d="m177.017 134.10318l12.629929 0" fill-rule="evenodd"/><path fill="#000000" fill-opacity="0.0" d="m190.00208 100.18232c0.7978821 0.79787445 3.652954 2.8650131 4.787262 4.787262c1.1343231 1.9222565 1.6460419 4.8599854 2.0186615 6.7462387c0.37261963 1.8862534 0.22702026 2.8664627 0.21707153 4.571289c-0.0099487305 1.704834 -0.013031006 3.8079681 -0.27676392 5.6576843c-0.26371765 1.8497162 -0.6164398 3.6996078 -1.3056183 5.440613c-0.6891632 1.7410126 -1.7050018 3.8808594 -2.8293762 5.005417c-1.1243744 1.1245575 -3.264038 1.4515839 -3.9168549 1.7419128" fill-rule="evenodd"/><path stroke="#000000" stroke-width="4.0" stroke-linejoin="round" stroke-linecap="butt" d="m190.00208 100.18232c0.7978821 0.79787445 3.652954 2.8650131 4.787262 4.787262c1.1343231 1.9222565 1.6460419 4.8599854 2.0186615 6.7462387c0.37261963 1.8862534 0.22702026 2.8664627 0.21707153 4.571289c-0.0099487305 1.704834 -0.013031006 3.8079681 -0.27676392 5.6576843c-0.26371765 1.8497162 -0.6164398 3.6996078 -1.3056183 5.440613c-0.6891632 1.7410126 -1.7050018 3.8808594 -2.8293762 5.005417c-1.1243744 1.1245575 -3.264038 1.4515839 -3.9168549 1.7419128" fill-rule="evenodd"/><path fill="#000000" fill-opacity="0.0" d="m191.5958 100.2336c1.7187347 0.14566803 7.5546875 -0.29264832 10.312347 0.8740158c2.7576447 1.1666641 4.767273 3.7537155 6.233597 6.125984c1.4663086 2.3722687 2.313202 5.619423 2.5643005 8.107613c0.25108337 2.4881897 -0.19247437 4.705162 -1.0577393 6.821518c-0.86528015 2.1163635 -2.3972015 4.171921 -4.1338654 5.8766403c-1.7366638 1.7047272 -3.5651855 3.335968 -6.286087 4.351715c-2.7209167 1.0157471 -8.36615 1.4523163 -10.039368 1.7427826" fill-rule="evenodd"/><path stroke="#000000" stroke-width="4.0" stroke-linejoin="round" stroke-linecap="butt" d="m191.5958 100.2336c1.7187347 0.14566803 7.5546875 -0.29264832 10.312347 0.8740158c2.7576447 1.1666641 4.767273 3.7537155 6.233597 6.125984c1.4663086 2.3722687 2.313202 5.619423 2.5643005 8.107613c0.25108337 2.4881897 -0.19247437 4.705162 -1.0577393 6.821518c-0.86528015 2.1163635 -2.3972015 4.171921 -4.1338654 5.8766403c-1.7366638 1.7047272 -3.5651855 3.335968 -6.286087 4.351715c-2.7209167 1.0157471 -8.36615 1.4523163 -10.039368 1.7427826" fill-rule="evenodd"/><path fill="#4063d8" d="m165.09186 102.03991l10.236221 0l0 60.409447l-10.236221 0z" fill-rule="evenodd"/><path fill="#000000" fill-opacity="0.0" d="m495.38345 199.02019c-61.496063 0 -92.24408 -47.259842 -122.99213 -94.51968c-30.748016 -47.259846 -61.496063 -94.519684 -122.99213 -94.519684" fill-rule="evenodd"/><path stroke="#000000" stroke-width="4.0" stroke-linejoin="round" stroke-linecap="butt" d="m495.38345 199.02019c-61.496063 0 -92.24408 -47.259842 -122.99213 -94.51968c-30.748016 -47.259846 -61.496063 -94.519684 -122.99213 -94.519684" fill-rule="evenodd"/></g></svg>